<svg width="193" height="80" viewBox="0 0 193 80" fill="none" xmlns="http://www.w3.org/2000/svg">
<g clip-path="url(#clip0_3494_1281)">
<path d="M81.5386 14.81C75.1875 14.8698 68.8829 15.6038 62.5583 16.1086C49.8163 17.1249 37.363 19.8316 24.9131 22.535C19.4717 23.7174 14.0801 25.1654 8.76811 26.8824C6.74957 27.5334 4.95678 28.636 3.11088 29.6257C1.60029 30.436 1.65009 31.3892 3.11088 32.3989C3.3798 32.5848 3.63875 32.8107 3.82467 33.073C4.00395 33.3221 4.26955 33.6576 3.99067 33.9631C3.72175 34.2554 3.34328 34.1159 3.08764 33.9067C2.14809 33.1461 1.19525 32.3922 0.325421 31.5553C-0.321974 30.9342 0.116262 30.3563 0.604298 29.8416C2.3506 27.9983 4.50859 26.7595 6.83589 25.8695C13.4061 23.3587 20.2785 21.8741 27.111 20.3431C36.8949 18.1478 46.7752 16.3543 56.7251 15.089C62.7376 14.3251 68.8198 14.1292 74.8621 13.6111C77.6177 13.3753 80.3766 13.2291 83.1388 13.2557C84.9482 13.2756 86.0305 11.9372 87.3054 11.0837C95.3729 5.68679 104.187 2.27265 113.736 0.638636C115.309 0.369623 116.843 -0.0754121 118.467 0.0109379C119.499 0.0673976 120.655 0.200244 121.016 1.1667C121.435 2.28593 120.505 3.16936 119.622 3.74724C117.268 5.28161 114.864 6.7396 112.461 8.19759C109.782 9.82163 107.082 11.4091 104.337 13.0498C104.536 13.176 104.609 13.2557 104.695 13.2756C105.399 13.4184 106.608 13.1627 106.578 14.0262C106.555 14.7702 105.353 14.4879 104.699 14.438C102.674 14.2786 100.967 14.913 99.2706 16.0056C93.6997 19.5858 88.059 23.0598 82.4416 26.5702C81.263 27.3075 80.1243 28.0847 79.5367 29.4231C79.4769 29.5128 79.3474 29.6456 79.3707 29.6821C79.5001 29.8847 79.6396 29.7818 79.7657 29.6523C84.925 28.6526 90.1174 27.9352 95.3862 28.3005C102.511 28.7921 109.47 30.1438 116.302 32.256C118.746 33.0099 120.99 33.9565 122.902 35.6602C123.085 35.823 123.403 35.9093 123.659 35.906C126.355 35.8661 128.984 35.8163 131.441 34.2587C132.62 33.5114 134.17 33.0963 135.555 32.7675C137.842 32.2228 139.977 31.0538 142.43 31.097C143.506 31.1169 144.502 30.4427 145.548 30.1371C147.101 29.6788 148.698 29.6788 150.242 29.2836C150.883 29.1209 151.597 28.7223 152.071 29.6821C152.261 30.0641 152.749 29.9379 153.13 29.805C161.225 26.9887 169.531 25.0525 178.034 24.0362C182.632 23.4882 187.26 23.0498 191.901 23.5812C192.303 23.6277 193 23.445 193 24.0096C193 24.727 192.26 24.4746 191.818 24.4912C185.308 24.7502 178.88 25.5573 172.449 26.6699C165.179 27.9286 158.174 29.991 151.235 32.3889C150.348 32.6944 149.415 33.1727 148.947 31.7745C148.788 31.2995 148.28 31.3925 147.935 31.4922C143.486 32.7575 138.871 33.4052 134.522 35.0491C134.432 35.0823 134.373 35.1986 134.2 35.3812C135.379 35.7665 136.511 35.8728 137.676 35.8562C138.28 35.8462 138.901 35.8761 139.482 36.0222C140.076 36.1717 140.943 36.1252 140.956 37.0518C140.969 37.9385 140.146 37.9186 139.558 38.1876C134.738 40.3962 129.615 41.7247 124.406 42.1132C120.97 42.369 118.267 43.7871 115.416 45.2883C106.04 50.2202 96.6777 55.1753 87.2158 59.9379C81.5452 62.7907 75.5992 65.0624 69.7925 67.6264C60.646 71.6616 51.4962 75.6669 41.8882 78.5031C39.5642 79.1906 37.28 80.0807 34.7901 79.991C33.7974 79.9545 32.5491 80.1405 32.1274 79.0976C31.6328 77.8788 31.6925 76.4706 32.4993 75.2916C37.1074 68.5529 43.08 63.2756 49.8096 58.719C53.5678 56.175 57.4157 53.817 61.4063 51.6782C62.5152 51.0837 62.9036 49.9312 63.5543 49.0279C67.037 44.1956 70.2308 39.1574 73.8894 34.448C74.0454 34.2454 74.0653 33.9332 74.145 33.6709C74.2745 33.5413 74.5235 33.3122 74.5135 33.2989C74.2811 33.0166 74.0853 33.2225 73.8861 33.372C73.1855 33.5081 72.4917 33.7007 71.7845 33.7605C71.2832 33.8037 70.6092 34.0096 70.3934 33.2524C70.2175 32.6347 70.5628 32.1564 71.0342 31.8409C72.3589 30.9541 73.6205 29.8681 75.0746 29.2969C79.7325 27.4703 82.5944 23.6841 85.6022 20.0441C87.0166 18.3338 88.318 16.5304 89.6725 14.7668C89.812 14.7137 89.9514 14.6606 90.0875 14.6107C90.1871 14.8233 90.3564 14.8964 90.5822 14.8731C90.8445 14.9561 91.1234 15.006 91.3657 15.1255C91.804 15.3414 92.4082 15.5606 92.1824 16.1717C91.9202 16.8791 91.462 16.2016 91.0902 16.1783C90.6121 16.1518 90.207 16.3411 89.9149 16.6865C87.9594 18.998 86.0172 21.3261 84.0717 23.6476C84.1747 23.7638 84.2776 23.8801 84.3805 23.9996C89.4833 20.9874 94.5031 17.8455 99.7918 14.3384H89.6028C86.6314 13.9399 84.0452 14.4148 81.7345 16.6765C79.4238 18.9382 76.6549 20.7449 74.6596 23.3354C73.8363 24.4048 73.0494 25.5539 72.8569 26.992C72.7672 27.6762 72.2593 28.4334 71.5787 28.2242C70.7487 27.9684 71.2965 27.2079 71.5123 26.6865C73.2055 22.5749 76.1868 19.5194 79.6462 16.8724C80.3965 16.3012 81.1136 15.7134 81.7146 14.986C81.771 14.913 81.8872 14.8 81.8706 14.7735C81.7544 14.6008 81.6382 14.6938 81.532 14.8034L81.5386 14.81ZM65.1413 49.546C66.8643 49.4331 68.1956 48.3836 69.6929 47.7027C78.7332 43.6077 88.2383 40.9741 97.9691 39.1973C105.422 37.8356 112.916 36.6499 120.983 36.1119C119.921 35.5473 119.28 35.1488 118.596 34.8499C112.733 32.2693 106.488 31.1202 100.223 30.1704C94.9247 29.3666 89.5796 29.5327 84.2543 30.1836C80.1741 30.6818 76.4922 31.8442 74.321 35.7665C73.8163 36.6765 73.1291 37.4835 72.5382 38.3437C70.0083 42.0169 67.2162 45.5075 64.9719 49.3799C64.9155 49.453 64.7927 49.5692 64.8093 49.5958C64.9387 49.8017 65.0416 49.6489 65.1379 49.5427L65.1413 49.546ZM59.6467 54.3351C59.2915 54.4679 58.913 54.5576 58.5843 54.7403C53.5379 57.5168 48.9199 60.9176 44.4645 64.5443C40.693 67.6164 36.9779 70.7615 34.7303 75.2185C34.2589 76.1584 33.0902 77.3142 33.8572 78.1577C34.5676 78.9382 36.0815 78.4533 37.1838 78.1478C40.693 77.1747 44.1856 76.1451 47.6682 75.0724C55.0718 72.7941 62.067 69.4962 69.1352 66.3842C74.0819 64.2056 79.0885 62.1564 83.9987 59.898C93.1253 55.7001 101.734 50.4593 110.944 46.4208C112.348 45.803 113.357 44.5078 114.858 43.9864C116.651 43.362 118.108 42.1365 119.642 41.0804C120.578 40.4361 121.481 39.639 121.966 38.5363C122.188 38.0349 122.321 37.5666 121.418 37.6297C119.712 37.7526 117.989 37.7061 116.289 37.8854C106.794 38.8917 97.3948 40.4693 88.1254 42.7907C79.4703 44.9595 71.2334 48.2208 63.2455 52.1597C62.7343 52.4121 62.3857 52.8439 62.0703 53.3022C57.7444 59.5725 53.103 65.6071 48.4385 71.625C48.143 72.007 47.9504 72.5284 47.2333 72.2262C48.0733 70.2069 49.4013 68.5363 50.789 66.9189C54.1355 63.0199 57.0239 58.7954 59.7861 54.4746C59.8227 54.3915 59.8592 54.3085 59.8957 54.2255C59.8094 54.262 59.7264 54.2952 59.6401 54.3318L59.6467 54.3351ZM86.8472 12.8771C87.4482 12.9468 87.654 12.9701 87.8598 12.9933C91.0437 13.352 94.2408 12.7542 97.4213 13.083C99.8217 13.3321 102.023 13.2524 104.197 11.8176C108.882 8.72565 113.918 6.18165 118.414 2.7841C118.702 2.56491 119.194 2.37892 119.014 1.9206C118.839 1.4656 118.334 1.65159 117.985 1.69144C116.345 1.87743 114.705 2.07005 113.078 2.3291C103.68 3.82362 95.021 7.17799 86.8506 12.8804L86.8472 12.8771ZM135.814 37.7492C131.325 37.3407 126.796 36.7728 123.337 40.6851C127.57 40.0242 131.876 39.7021 135.814 37.7492ZM77.06 29.8183C75.7917 30.3132 74.8621 30.7981 73.9093 32.0036C75.3004 31.4457 76.7213 31.7545 77.06 29.8183Z" fill="#19191C"/>
<path d="M24.3319 53.8794C26.6659 51.8635 28.9334 49.7645 31.347 47.8515C36.7685 43.5572 42.4059 39.5918 48.9064 37.0445C49.5438 36.7954 50.3074 36.3171 50.8884 37.0511C51.476 37.795 50.7489 38.4161 50.4136 38.984C49.826 39.977 49.0989 40.8904 48.4449 41.8435C48.1328 42.2985 47.7012 42.8997 48.0266 43.3347C48.3652 43.7897 49.0458 43.5008 49.5737 43.3248C52.1467 42.4613 54.5769 41.2623 56.9839 40.0335C58.1757 39.4257 59.4473 39.077 60.6624 38.5556C61.0375 38.3962 61.6351 38.2334 61.8443 38.7216C62.0634 39.2397 61.4791 39.4822 61.1172 39.6615C57.4121 41.4981 53.7768 43.4809 49.8924 44.9222C49.2981 45.1414 48.5744 45.1481 47.9303 45.0783C46.4297 44.9156 45.8686 43.7897 46.5492 42.4513C46.599 42.3517 46.6654 42.262 46.7251 42.1723C47.2397 41.4284 47.7709 40.2394 47.3725 39.7778C46.7285 39.0305 45.9615 40.1331 45.281 40.4652C39.554 43.2783 34.3483 46.8983 29.4712 50.9833C27.9972 52.2188 26.7389 53.7133 25.3346 55.0418C24.6606 55.6761 23.8704 56.4533 22.8678 55.7559C21.7722 54.9986 22.0577 53.8561 22.5491 52.9163C24.5444 49.1069 26.7422 45.4138 29.3185 41.9598C33.8702 35.8522 38.797 30.0468 43.4882 24.0521C44.4277 22.8498 45.0652 21.4018 46.2537 20.3822C46.6753 20.0202 47.0837 19.2397 47.7477 19.8874C48.3818 20.5051 47.5618 20.8239 47.2696 21.2125C41.5991 28.7449 35.2779 35.7758 29.9294 43.544C27.7316 46.7389 25.3014 49.8575 24.1161 53.6602C23.9966 53.7731 23.8538 53.8993 24.073 54.0322C24.1128 54.0554 24.2423 53.9325 24.3319 53.8761V53.8794ZM48.0232 39.3228C47.9934 39.2896 47.9635 39.2331 47.9303 39.2331C47.8971 39.2331 47.8606 39.2829 47.8274 39.3095C47.8573 39.3427 47.8871 39.3958 47.9203 39.3992C47.9535 39.3992 47.99 39.3493 48.0232 39.3228Z" fill="#19191C"/>
<path d="M60.1042 31.7085C59.231 32.1502 59.2543 33.3425 58.4508 33.6679C57.9728 33.8606 57.5378 33.1698 57.4781 32.5653C57.3851 31.6586 57.9993 31.2468 58.7297 31.0941C59.1713 31.0044 59.7191 31.0941 60.1075 31.7051L60.1042 31.7085Z" fill="#19191C"/>
<path d="M81.5391 14.8111C81.6453 14.7015 81.7615 14.6085 81.8777 14.7812C81.8943 14.8044 81.7781 14.9207 81.7217 14.9937C81.6586 14.934 81.5988 14.8742 81.5391 14.8111Z" fill="#19191C"/>
<path d="M90.0938 14.6191C90.2597 14.7055 90.4224 14.7952 90.5884 14.8815C90.366 14.9048 90.1933 14.8317 90.0938 14.6191Z" fill="#19191C"/>
<path d="M65.1408 49.543C65.0412 49.6493 64.9416 49.7987 64.8121 49.5962C64.7955 49.5696 64.915 49.4533 64.9748 49.377C65.0312 49.4301 65.0877 49.4866 65.1441 49.543H65.1408Z" fill="#19191C"/>
<path d="M59.6465 54.3328C59.7328 54.2963 59.8158 54.2631 59.9021 54.2266C59.8656 54.3096 59.8291 54.3926 59.7926 54.4756C59.7428 54.4292 59.6963 54.3827 59.6465 54.3328Z" fill="#19191C"/>
<path d="M48.024 39.3203C47.9908 39.3469 47.9543 39.4 47.9211 39.3967C47.8879 39.3967 47.858 39.3402 47.8281 39.307C47.8613 39.2804 47.8978 39.2273 47.931 39.2306C47.9642 39.2306 47.9941 39.2871 48.024 39.3203Z" fill="#19191C"/>
<path d="M24.333 53.878C24.2434 53.9344 24.1139 54.0573 24.074 54.0341C23.8549 53.9012 23.9944 53.7783 24.1172 53.6621C24.1902 53.7319 24.2633 53.8049 24.333 53.878Z" fill="#19191C"/>
</g>
<defs>
<clipPath id="clip0_3494_1281">
<rect width="193" height="80" fill="white"/>
</clipPath>
</defs>
</svg>
